<mxfile host="app.diagrams.net" modified="2024-04-26T13:30:58.674Z" agent="Mozilla/5.0 (Windows NT 10.0; Win64; x64) AppleWebKit/537.36 (KHTML, like Gecko) Chrome/124.0.0.0 Safari/537.36 Edg/124.0.0.0" etag="Pc7O79FVukU2a8sgugY1" version="24.3.0" type="github">
  <diagram name="Page-1" id="IlU0qOO4f0eTFkJFD-Sp">
    <mxGraphModel dx="872" dy="473" grid="1" gridSize="10" guides="1" tooltips="1" connect="1" arrows="1" fold="1" page="1" pageScale="1" pageWidth="850" pageHeight="1100" math="0" shadow="0">
      <root>
        <mxCell id="0" />
        <mxCell id="1" parent="0" />
        <mxCell id="Fdh9U_4XGUkjMdX29r3U-3" value="" style="edgeStyle=orthogonalEdgeStyle;rounded=0;orthogonalLoop=1;jettySize=auto;html=1;" edge="1" parent="1" source="Fdh9U_4XGUkjMdX29r3U-1" target="Fdh9U_4XGUkjMdX29r3U-2">
          <mxGeometry relative="1" as="geometry" />
        </mxCell>
        <mxCell id="Fdh9U_4XGUkjMdX29r3U-1" value="ETRE" style="rounded=0;whiteSpace=wrap;html=1;" vertex="1" parent="1">
          <mxGeometry x="280" y="70" width="120" height="60" as="geometry" />
        </mxCell>
        <mxCell id="Fdh9U_4XGUkjMdX29r3U-2" value="" style="rounded=0;whiteSpace=wrap;html=1;" vertex="1" parent="1">
          <mxGeometry x="280" y="210" width="120" height="60" as="geometry" />
        </mxCell>
      </root>
    </mxGraphModel>
  </diagram>
</mxfile>
